<mxfile host="app.diagrams.net" agent="Mozilla/5.0 (Macintosh; Intel Mac OS X 10_15_7) AppleWebKit/605.1.15 (KHTML, like Gecko) Version/18.0 Safari/605.1.15" version="24.7.14">
  <diagram name="第 1 页" id="eTvE2BEfJyLuob4ZyLsL">
    <mxGraphModel dx="708" dy="501" grid="1" gridSize="10" guides="1" tooltips="1" connect="1" arrows="1" fold="1" page="1" pageScale="1" pageWidth="827" pageHeight="1169" math="0" shadow="0">
      <root>
        <mxCell id="0" />
        <mxCell id="1" parent="0" />
        <mxCell id="n0FgEPLEgA3qGVLsE1ph-1" value="" style="rounded=0;whiteSpace=wrap;html=1;" vertex="1" parent="1">
          <mxGeometry x="480" y="120" width="480" height="320" as="geometry" />
        </mxCell>
        <mxCell id="n0FgEPLEgA3qGVLsE1ph-2" value="" style="endArrow=none;html=1;rounded=0;" edge="1" parent="1">
          <mxGeometry width="50" height="50" relative="1" as="geometry">
            <mxPoint x="480" y="70" as="sourcePoint" />
            <mxPoint x="960" y="70" as="targetPoint" />
          </mxGeometry>
        </mxCell>
        <mxCell id="n0FgEPLEgA3qGVLsE1ph-3" value="" style="shape=link;html=1;rounded=0;" edge="1" parent="1">
          <mxGeometry width="100" relative="1" as="geometry">
            <mxPoint x="1080" y="120" as="sourcePoint" />
            <mxPoint x="1080" y="440" as="targetPoint" />
          </mxGeometry>
        </mxCell>
        <mxCell id="n0FgEPLEgA3qGVLsE1ph-4" value="8m" style="text;html=1;align=center;verticalAlign=middle;resizable=0;points=[];autosize=1;strokeColor=none;fillColor=none;fontSize=20;fontStyle=1" vertex="1" parent="1">
          <mxGeometry x="1085" y="223" width="50" height="40" as="geometry" />
        </mxCell>
        <mxCell id="n0FgEPLEgA3qGVLsE1ph-5" value="12m" style="text;html=1;align=center;verticalAlign=middle;resizable=0;points=[];autosize=1;strokeColor=none;fillColor=none;fontSize=20;fontStyle=1" vertex="1" parent="1">
          <mxGeometry x="690" y="10" width="60" height="40" as="geometry" />
        </mxCell>
        <mxCell id="n0FgEPLEgA3qGVLsE1ph-6" value="" style="rounded=0;whiteSpace=wrap;html=1;" vertex="1" parent="1">
          <mxGeometry x="820" y="130" width="140" height="100" as="geometry" />
        </mxCell>
        <mxCell id="n0FgEPLEgA3qGVLsE1ph-7" value="" style="rounded=0;whiteSpace=wrap;html=1;" vertex="1" parent="1">
          <mxGeometry x="480" y="120" width="480" height="10" as="geometry" />
        </mxCell>
        <mxCell id="n0FgEPLEgA3qGVLsE1ph-8" value="24" style="text;html=1;align=center;verticalAlign=middle;resizable=0;points=[];autosize=1;strokeColor=none;fillColor=none;" vertex="1" parent="1">
          <mxGeometry x="950" y="108" width="40" height="30" as="geometry" />
        </mxCell>
        <mxCell id="n0FgEPLEgA3qGVLsE1ph-9" value="" style="endArrow=classic;startArrow=classic;html=1;rounded=0;entryX=1;entryY=0.667;entryDx=0;entryDy=0;entryPerimeter=0;" edge="1" parent="1" target="n0FgEPLEgA3qGVLsE1ph-8">
          <mxGeometry width="50" height="50" relative="1" as="geometry">
            <mxPoint x="990" y="230" as="sourcePoint" />
            <mxPoint x="920" y="120" as="targetPoint" />
            <Array as="points">
              <mxPoint x="990" y="180" />
            </Array>
          </mxGeometry>
        </mxCell>
        <mxCell id="n0FgEPLEgA3qGVLsE1ph-10" value="2314" style="text;html=1;align=center;verticalAlign=middle;resizable=0;points=[];autosize=1;strokeColor=none;fillColor=none;fontSize=20;fontStyle=1" vertex="1" parent="1">
          <mxGeometry x="980" y="160" width="70" height="40" as="geometry" />
        </mxCell>
        <mxCell id="n0FgEPLEgA3qGVLsE1ph-11" value="" style="rounded=0;whiteSpace=wrap;html=1;" vertex="1" parent="1">
          <mxGeometry x="480" y="230" width="480" height="10" as="geometry" />
        </mxCell>
        <mxCell id="n0FgEPLEgA3qGVLsE1ph-12" value="24" style="text;html=1;align=center;verticalAlign=middle;resizable=0;points=[];autosize=1;strokeColor=none;fillColor=none;" vertex="1" parent="1">
          <mxGeometry x="950" y="220" width="40" height="30" as="geometry" />
        </mxCell>
        <mxCell id="n0FgEPLEgA3qGVLsE1ph-13" value="" style="shape=link;html=1;rounded=0;width=6;entryX=1.004;entryY=0.981;entryDx=0;entryDy=0;entryPerimeter=0;exitX=-0.008;exitY=0.978;exitDx=0;exitDy=0;exitPerimeter=0;" edge="1" parent="1">
          <mxGeometry width="100" relative="1" as="geometry">
            <mxPoint x="476.1600000000001" y="435.96000000000004" as="sourcePoint" />
            <mxPoint x="961.9200000000001" y="436.9200000000001" as="targetPoint" />
          </mxGeometry>
        </mxCell>
        <mxCell id="n0FgEPLEgA3qGVLsE1ph-14" value="24" style="text;html=1;align=center;verticalAlign=middle;resizable=0;points=[];autosize=1;strokeColor=none;fillColor=none;" vertex="1" parent="1">
          <mxGeometry x="950" y="420" width="40" height="30" as="geometry" />
        </mxCell>
        <mxCell id="n0FgEPLEgA3qGVLsE1ph-15" value="3217" style="text;html=1;align=center;verticalAlign=middle;resizable=0;points=[];autosize=1;strokeColor=none;fillColor=none;fontSize=20;fontStyle=1" vertex="1" parent="1">
          <mxGeometry x="850" y="80" width="70" height="40" as="geometry" />
        </mxCell>
        <mxCell id="n0FgEPLEgA3qGVLsE1ph-16" value="" style="shape=link;html=1;rounded=0;entryX=0.125;entryY=0.833;entryDx=0;entryDy=0;entryPerimeter=0;" edge="1" parent="1">
          <mxGeometry width="100" relative="1" as="geometry">
            <mxPoint x="959" y="120.01" as="sourcePoint" />
            <mxPoint x="959" y="440" as="targetPoint" />
          </mxGeometry>
        </mxCell>
        <mxCell id="n0FgEPLEgA3qGVLsE1ph-17" value="24" style="text;html=1;align=center;verticalAlign=middle;resizable=0;points=[];autosize=1;strokeColor=none;fillColor=none;" vertex="1" parent="1">
          <mxGeometry x="940" y="440" width="40" height="30" as="geometry" />
        </mxCell>
        <mxCell id="n0FgEPLEgA3qGVLsE1ph-18" value="" style="shape=link;html=1;rounded=0;entryX=0;entryY=1;entryDx=0;entryDy=0;exitX=0;exitY=0;exitDx=0;exitDy=0;" edge="1" parent="1">
          <mxGeometry width="100" relative="1" as="geometry">
            <mxPoint x="481" y="120" as="sourcePoint" />
            <mxPoint x="481" y="440" as="targetPoint" />
          </mxGeometry>
        </mxCell>
        <mxCell id="n0FgEPLEgA3qGVLsE1ph-19" value="3120" style="text;html=1;align=center;verticalAlign=middle;resizable=0;points=[];autosize=1;strokeColor=none;fillColor=none;fontSize=20;fontStyle=1" vertex="1" parent="1">
          <mxGeometry x="530" y="80" width="70" height="40" as="geometry" />
        </mxCell>
        <mxCell id="n0FgEPLEgA3qGVLsE1ph-20" value="" style="shape=link;html=1;rounded=0;exitX=0;exitY=0;exitDx=0;exitDy=0;" edge="1" parent="1">
          <mxGeometry width="100" relative="1" as="geometry">
            <mxPoint x="819" y="130" as="sourcePoint" />
            <mxPoint x="819" y="440" as="targetPoint" />
          </mxGeometry>
        </mxCell>
        <mxCell id="n0FgEPLEgA3qGVLsE1ph-21" value="" style="shape=link;html=1;rounded=0;exitX=0;exitY=0;exitDx=0;exitDy=0;" edge="1" parent="1">
          <mxGeometry width="100" relative="1" as="geometry">
            <mxPoint x="620" y="120" as="sourcePoint" />
            <mxPoint x="620" y="430" as="targetPoint" />
          </mxGeometry>
        </mxCell>
        <mxCell id="n0FgEPLEgA3qGVLsE1ph-22" value="" style="rounded=0;whiteSpace=wrap;html=1;" vertex="1" parent="1">
          <mxGeometry x="480" y="275" width="140" height="10" as="geometry" />
        </mxCell>
        <mxCell id="n0FgEPLEgA3qGVLsE1ph-23" value="" style="shape=link;html=1;rounded=0;" edge="1" parent="1">
          <mxGeometry width="100" relative="1" as="geometry">
            <mxPoint x="562" y="560" as="sourcePoint" />
            <mxPoint x="562" y="880" as="targetPoint" />
            <Array as="points">
              <mxPoint x="562" y="730" />
            </Array>
          </mxGeometry>
        </mxCell>
        <mxCell id="n0FgEPLEgA3qGVLsE1ph-25" value="" style="shape=link;html=1;rounded=0;" edge="1" parent="1">
          <mxGeometry width="100" relative="1" as="geometry">
            <mxPoint x="1038" y="560" as="sourcePoint" />
            <mxPoint x="1038" y="880" as="targetPoint" />
            <Array as="points">
              <mxPoint x="1038" y="730" />
            </Array>
          </mxGeometry>
        </mxCell>
        <mxCell id="n0FgEPLEgA3qGVLsE1ph-26" value="" style="shape=link;html=1;rounded=0;" edge="1" parent="1" source="n0FgEPLEgA3qGVLsE1ph-58">
          <mxGeometry width="100" relative="1" as="geometry">
            <mxPoint x="898" y="560" as="sourcePoint" />
            <mxPoint x="898" y="880" as="targetPoint" />
            <Array as="points">
              <mxPoint x="898" y="730" />
            </Array>
          </mxGeometry>
        </mxCell>
        <mxCell id="n0FgEPLEgA3qGVLsE1ph-27" value="" style="shape=link;html=1;rounded=0;" edge="1" parent="1">
          <mxGeometry width="100" relative="1" as="geometry">
            <mxPoint x="700" y="720" as="sourcePoint" />
            <mxPoint x="700" y="880" as="targetPoint" />
            <Array as="points">
              <mxPoint x="700" y="730" />
            </Array>
          </mxGeometry>
        </mxCell>
        <mxCell id="n0FgEPLEgA3qGVLsE1ph-28" value="" style="shape=link;html=1;rounded=0;" edge="1" parent="1">
          <mxGeometry width="100" relative="1" as="geometry">
            <mxPoint x="560" y="562" as="sourcePoint" />
            <mxPoint x="1040" y="562" as="targetPoint" />
            <Array as="points" />
          </mxGeometry>
        </mxCell>
        <mxCell id="n0FgEPLEgA3qGVLsE1ph-29" value="" style="shape=link;html=1;rounded=0;" edge="1" parent="1">
          <mxGeometry width="100" relative="1" as="geometry">
            <mxPoint x="903" y="659" as="sourcePoint" />
            <mxPoint x="1043" y="659" as="targetPoint" />
            <Array as="points" />
          </mxGeometry>
        </mxCell>
        <mxCell id="n0FgEPLEgA3qGVLsE1ph-30" value="" style="shape=link;html=1;rounded=0;" edge="1" parent="1" source="n0FgEPLEgA3qGVLsE1ph-36">
          <mxGeometry width="100" relative="1" as="geometry">
            <mxPoint x="560" y="720" as="sourcePoint" />
            <mxPoint x="703" y="720" as="targetPoint" />
            <Array as="points" />
          </mxGeometry>
        </mxCell>
        <mxCell id="n0FgEPLEgA3qGVLsE1ph-31" value="" style="shape=link;html=1;rounded=0;" edge="1" parent="1">
          <mxGeometry width="100" relative="1" as="geometry">
            <mxPoint x="560" y="878" as="sourcePoint" />
            <mxPoint x="1040" y="878" as="targetPoint" />
            <Array as="points" />
          </mxGeometry>
        </mxCell>
        <mxCell id="n0FgEPLEgA3qGVLsE1ph-33" value="" style="shape=link;html=1;rounded=0;" edge="1" parent="1">
          <mxGeometry width="100" relative="1" as="geometry">
            <mxPoint x="700" y="560" as="sourcePoint" />
            <mxPoint x="700" y="660" as="targetPoint" />
            <Array as="points">
              <mxPoint x="700" y="570" />
            </Array>
          </mxGeometry>
        </mxCell>
        <mxCell id="n0FgEPLEgA3qGVLsE1ph-34" value="" style="shape=link;html=1;rounded=0;" edge="1" parent="1" source="n0FgEPLEgA3qGVLsE1ph-48">
          <mxGeometry width="100" relative="1" as="geometry">
            <mxPoint x="553" y="660" as="sourcePoint" />
            <mxPoint x="703" y="660" as="targetPoint" />
            <Array as="points" />
          </mxGeometry>
        </mxCell>
        <mxCell id="n0FgEPLEgA3qGVLsE1ph-38" value="" style="shape=link;html=1;rounded=0;" edge="1" parent="1" target="n0FgEPLEgA3qGVLsE1ph-36">
          <mxGeometry width="100" relative="1" as="geometry">
            <mxPoint x="560" y="720" as="sourcePoint" />
            <mxPoint x="703" y="720" as="targetPoint" />
            <Array as="points" />
          </mxGeometry>
        </mxCell>
        <mxCell id="n0FgEPLEgA3qGVLsE1ph-36" value="" style="triangle;whiteSpace=wrap;html=1;direction=north;" vertex="1" parent="1">
          <mxGeometry x="650" y="710" width="30" height="20" as="geometry" />
        </mxCell>
        <mxCell id="n0FgEPLEgA3qGVLsE1ph-39" value="大卧室" style="text;html=1;align=center;verticalAlign=middle;resizable=0;points=[];autosize=1;strokeColor=none;fillColor=none;" vertex="1" parent="1">
          <mxGeometry x="940" y="768" width="60" height="30" as="geometry" />
        </mxCell>
        <mxCell id="n0FgEPLEgA3qGVLsE1ph-40" value="次卧室" style="text;html=1;align=center;verticalAlign=middle;resizable=0;points=[];autosize=1;strokeColor=none;fillColor=none;" vertex="1" parent="1">
          <mxGeometry x="600" y="768" width="60" height="30" as="geometry" />
        </mxCell>
        <mxCell id="n0FgEPLEgA3qGVLsE1ph-41" value="小房间+卫生间" style="text;html=1;align=center;verticalAlign=middle;resizable=0;points=[];autosize=1;strokeColor=none;fillColor=none;" vertex="1" parent="1">
          <mxGeometry x="575" y="620" width="100" height="30" as="geometry" />
        </mxCell>
        <mxCell id="n0FgEPLEgA3qGVLsE1ph-42" value="厨房" style="text;html=1;align=center;verticalAlign=middle;resizable=0;points=[];autosize=1;strokeColor=none;fillColor=none;" vertex="1" parent="1">
          <mxGeometry x="945" y="600" width="50" height="30" as="geometry" />
        </mxCell>
        <mxCell id="n0FgEPLEgA3qGVLsE1ph-46" value="餐厅" style="text;html=1;align=center;verticalAlign=middle;resizable=0;points=[];autosize=1;strokeColor=none;fillColor=none;" vertex="1" parent="1">
          <mxGeometry x="777" y="600" width="50" height="30" as="geometry" />
        </mxCell>
        <mxCell id="n0FgEPLEgA3qGVLsE1ph-47" value="客厅" style="text;html=1;align=center;verticalAlign=middle;resizable=0;points=[];autosize=1;strokeColor=none;fillColor=none;" vertex="1" parent="1">
          <mxGeometry x="777" y="770" width="50" height="30" as="geometry" />
        </mxCell>
        <mxCell id="n0FgEPLEgA3qGVLsE1ph-49" value="" style="shape=link;html=1;rounded=0;" edge="1" parent="1" target="n0FgEPLEgA3qGVLsE1ph-48">
          <mxGeometry width="100" relative="1" as="geometry">
            <mxPoint x="553" y="660" as="sourcePoint" />
            <mxPoint x="703" y="660" as="targetPoint" />
            <Array as="points" />
          </mxGeometry>
        </mxCell>
        <mxCell id="n0FgEPLEgA3qGVLsE1ph-48" value="" style="triangle;whiteSpace=wrap;html=1;direction=south;" vertex="1" parent="1">
          <mxGeometry x="650" y="650" width="30" height="20" as="geometry" />
        </mxCell>
        <mxCell id="n0FgEPLEgA3qGVLsE1ph-56" value="" style="triangle;whiteSpace=wrap;html=1;direction=west;" vertex="1" parent="1">
          <mxGeometry x="890" y="670" width="20" height="30" as="geometry" />
        </mxCell>
        <mxCell id="n0FgEPLEgA3qGVLsE1ph-59" value="" style="shape=link;html=1;rounded=0;" edge="1" parent="1" target="n0FgEPLEgA3qGVLsE1ph-58">
          <mxGeometry width="100" relative="1" as="geometry">
            <mxPoint x="898" y="560" as="sourcePoint" />
            <mxPoint x="898" y="880" as="targetPoint" />
            <Array as="points" />
          </mxGeometry>
        </mxCell>
        <mxCell id="n0FgEPLEgA3qGVLsE1ph-58" value="" style="triangle;whiteSpace=wrap;html=1;direction=west;" vertex="1" parent="1">
          <mxGeometry x="888" y="610" width="20" height="30" as="geometry" />
        </mxCell>
        <mxCell id="n0FgEPLEgA3qGVLsE1ph-60" value="8m" style="text;html=1;align=center;verticalAlign=middle;resizable=0;points=[];autosize=1;strokeColor=none;fillColor=none;fontSize=19;" vertex="1" parent="1">
          <mxGeometry x="1120" y="700" width="50" height="40" as="geometry" />
        </mxCell>
        <mxCell id="n0FgEPLEgA3qGVLsE1ph-61" value="2300" style="text;html=1;align=center;verticalAlign=middle;resizable=0;points=[];autosize=1;strokeColor=none;fillColor=none;fontSize=19;" vertex="1" parent="1">
          <mxGeometry x="1040" y="600" width="70" height="40" as="geometry" />
        </mxCell>
        <mxCell id="n0FgEPLEgA3qGVLsE1ph-62" value="4980" style="text;html=1;align=center;verticalAlign=middle;resizable=0;points=[];autosize=1;strokeColor=none;fillColor=none;fontSize=19;" vertex="1" parent="1">
          <mxGeometry x="1040" y="750" width="70" height="40" as="geometry" />
        </mxCell>
        <mxCell id="n0FgEPLEgA3qGVLsE1ph-63" value="1140" style="text;html=1;align=center;verticalAlign=middle;resizable=0;points=[];autosize=1;strokeColor=none;fillColor=none;fontSize=19;" vertex="1" parent="1">
          <mxGeometry x="595" y="670" width="60" height="40" as="geometry" />
        </mxCell>
        <mxCell id="n0FgEPLEgA3qGVLsE1ph-64" value="3600" style="text;html=1;align=center;verticalAlign=middle;resizable=0;points=[];autosize=1;strokeColor=none;fillColor=none;fontSize=19;" vertex="1" parent="1">
          <mxGeometry x="485" y="790" width="70" height="40" as="geometry" />
        </mxCell>
        <mxCell id="n0FgEPLEgA3qGVLsE1ph-65" value="4980X4600" style="text;html=1;align=center;verticalAlign=middle;resizable=0;points=[];autosize=1;strokeColor=none;fillColor=none;fontSize=19;" vertex="1" parent="1">
          <mxGeometry x="728" y="730" width="120" height="40" as="geometry" />
        </mxCell>
        <mxCell id="n0FgEPLEgA3qGVLsE1ph-66" value="" style="endArrow=none;dashed=1;html=1;dashPattern=1 3;strokeWidth=2;rounded=0;" edge="1" parent="1">
          <mxGeometry width="50" height="50" relative="1" as="geometry">
            <mxPoint x="700" y="660" as="sourcePoint" />
            <mxPoint x="900" y="660" as="targetPoint" />
          </mxGeometry>
        </mxCell>
        <mxCell id="n0FgEPLEgA3qGVLsE1ph-67" value="2300X4600" style="text;html=1;align=center;verticalAlign=middle;resizable=0;points=[];autosize=1;strokeColor=none;fillColor=none;fontSize=19;" vertex="1" parent="1">
          <mxGeometry x="730" y="580" width="120" height="40" as="geometry" />
        </mxCell>
        <mxCell id="n0FgEPLEgA3qGVLsE1ph-68" value="楼梯+卫生间" style="text;html=1;align=center;verticalAlign=middle;resizable=0;points=[];autosize=1;strokeColor=none;fillColor=none;" vertex="1" parent="1">
          <mxGeometry x="585" y="580" width="90" height="30" as="geometry" />
        </mxCell>
        <mxCell id="n0FgEPLEgA3qGVLsE1ph-69" value="3200" style="text;html=1;align=center;verticalAlign=middle;resizable=0;points=[];autosize=1;strokeColor=none;fillColor=none;fontSize=19;" vertex="1" parent="1">
          <mxGeometry x="925" y="830" width="70" height="40" as="geometry" />
        </mxCell>
        <mxCell id="n0FgEPLEgA3qGVLsE1ph-70" value="3100" style="text;html=1;align=center;verticalAlign=middle;resizable=0;points=[];autosize=1;strokeColor=none;fillColor=none;fontSize=19;" vertex="1" parent="1">
          <mxGeometry x="590" y="830" width="70" height="40" as="geometry" />
        </mxCell>
      </root>
    </mxGraphModel>
  </diagram>
</mxfile>
